<svg width="1003" height="1261" viewBox="0 0 1003 1261" fill="none" xmlns="http://www.w3.org/2000/svg">
<rect width="1003" height="593" rx="15" fill="white"/>
<path d="M492.122 849.289C347.705 722.922 246 655.985 246 549.515C246 469.002 303.4 403 382 403C436.544 403 477.017 436.497 502 484.015C526.981 436.5 567.454 403 622 403C700.609 403 758 469.015 758 549.515C758 655.972 656.428 722.806 511.878 849.288C506.221 854.237 497.778 854.237 492.122 849.289Z" fill="#F72585"/>
<circle cx="302" cy="296" r="83" fill="#4895EF"/>
<circle cx="702" cy="296" r="83" fill="#4895EF"/>
<path d="M12.3472 1122.37V980.453H41.8668V997.626C46.4083 992.043 51.1864 987.502 56.2009 984.001C61.3101 980.406 67.3654 978.608 74.3669 978.608C84.7744 978.608 93.9993 980.973 102.042 985.704C110.178 990.34 116.991 996.821 122.478 1005.15C127.966 996.727 134.778 990.198 142.915 985.562C151.146 980.926 160.324 978.608 170.448 978.608C182.653 978.608 193.392 981.683 202.664 987.833C211.936 993.983 219.221 1002.17 224.52 1012.39C229.818 1022.51 232.467 1033.67 232.467 1045.88V1122.37H202.948V1045.88C202.948 1038.88 201.576 1032.54 198.832 1026.86C196.183 1021.18 192.446 1016.64 187.62 1013.24C182.795 1009.83 177.071 1008.13 170.448 1008.13C164.014 1008.13 158.242 1009.83 153.133 1013.24C148.119 1016.64 144.192 1021.18 141.354 1026.86C138.61 1032.54 137.238 1038.88 137.238 1045.88V1122.37H107.718V1045.88C107.718 1038.88 106.299 1032.54 103.461 1026.86C100.622 1021.18 96.6959 1016.64 91.6813 1013.24C86.6667 1009.83 80.8953 1008.13 74.3669 1008.13C68.1223 1008.13 62.5401 1009.93 57.6201 1013.52C52.7948 1017.12 48.9629 1021.85 46.1245 1027.71C43.2861 1033.58 41.8668 1040.01 41.8668 1047.01V1122.37H12.3472Z" fill="white"/>
<path d="M342.23 1126.06C329.174 1126.06 317.252 1122.71 306.466 1115.99C295.775 1109.27 287.212 1100.28 280.778 1089.02C274.439 1077.67 271.27 1065.13 271.27 1051.41C271.27 1041.01 273.115 1031.31 276.805 1022.32C280.495 1013.24 285.556 1005.29 291.99 998.477C298.519 991.57 306.088 986.177 314.698 982.298C323.307 978.419 332.485 976.479 342.23 976.479C355.287 976.479 367.161 979.838 377.853 986.556C388.639 993.273 397.201 1002.31 403.54 1013.66C409.974 1025.02 413.191 1037.6 413.191 1051.41C413.191 1061.73 411.346 1071.38 407.656 1080.37C403.966 1089.35 398.857 1097.3 392.329 1104.21C385.895 1111.02 378.373 1116.37 369.763 1120.25C361.248 1124.12 352.07 1126.06 342.23 1126.06ZM342.23 1096.54C350.083 1096.54 357.132 1094.46 363.377 1090.3C369.621 1086.14 374.541 1080.65 378.137 1073.84C381.826 1066.93 383.671 1059.46 383.671 1051.41C383.671 1043.18 381.779 1035.61 377.995 1028.71C374.305 1021.8 369.337 1016.31 363.093 1012.24C356.848 1008.08 349.894 1006 342.23 1006C334.472 1006 327.423 1008.08 321.084 1012.24C314.84 1016.41 309.872 1021.94 306.182 1028.85C302.587 1035.76 300.789 1043.28 300.789 1051.41C300.789 1059.83 302.682 1067.45 306.466 1074.26C310.251 1081.08 315.265 1086.52 321.51 1090.58C327.849 1094.56 334.756 1096.54 342.23 1096.54Z" fill="white"/>
<path d="M590.531 1048.01V1122.37H561.011V1048.58C561.011 1040.53 559.308 1033.25 555.902 1026.72C552.591 1020.1 548.002 1014.85 542.136 1010.97C536.364 1006.99 529.789 1005.01 522.409 1005.01C515.029 1005.01 508.548 1006.99 502.965 1010.97C497.478 1014.85 493.173 1020.1 490.05 1026.72C487.023 1033.25 485.509 1040.53 485.509 1048.58V1122.37H455.989V980.453H485.509V999.612C490.429 992.422 496.39 986.792 503.391 982.724C510.393 978.561 518.293 976.479 527.092 976.479C539.865 976.479 550.935 979.743 560.302 986.272C569.763 992.8 577.143 1001.46 582.441 1012.24C587.74 1023.03 590.436 1034.95 590.531 1048.01Z" fill="white"/>
<path d="M644.523 980.453H674.043V1122.37H644.523V980.453ZM659.425 957.036C654.978 957.036 651.241 955.57 648.213 952.636C645.185 949.703 643.672 946.013 643.672 941.567C643.672 937.214 645.185 933.572 648.213 930.639C651.241 927.611 654.978 926.097 659.425 926.097C663.777 926.097 667.467 927.611 670.495 930.639C673.522 933.572 675.036 937.214 675.036 941.567C675.036 946.013 673.522 949.703 670.495 952.636C667.467 955.57 663.777 957.036 659.425 957.036Z" fill="white"/>
<path d="M816.452 1009.97H786.649L786.507 1122.37H756.987L757.129 1009.97H734.563V980.453H757.129L756.987 935.89H786.507L786.649 980.453H816.452V1009.97Z" fill="white"/>
<path d="M922.856 1126.06C909.799 1126.06 897.877 1122.71 887.091 1115.99C876.4 1109.27 867.837 1100.28 861.404 1089.02C855.064 1077.67 851.895 1065.13 851.895 1051.41C851.895 1041.01 853.74 1031.31 857.43 1022.32C861.12 1013.24 866.182 1005.29 872.615 998.477C879.144 991.57 886.713 986.177 895.323 982.298C903.933 978.419 913.11 976.479 922.856 976.479C935.912 976.479 947.786 979.838 958.478 986.556C969.264 993.273 977.827 1002.31 984.166 1013.66C990.599 1025.02 993.816 1037.6 993.816 1051.41C993.816 1061.73 991.971 1071.38 988.281 1080.37C984.591 1089.35 979.482 1097.3 972.954 1104.21C966.52 1111.02 958.998 1116.37 950.388 1120.25C941.873 1124.12 932.695 1126.06 922.856 1126.06ZM922.856 1096.54C930.709 1096.54 937.757 1094.46 944.002 1090.3C950.247 1086.14 955.166 1080.65 958.762 1073.84C962.452 1066.93 964.297 1059.46 964.297 1051.41C964.297 1043.18 962.404 1035.61 958.62 1028.71C954.93 1021.8 949.963 1016.31 943.718 1012.24C937.474 1008.08 930.519 1006 922.856 1006C915.097 1006 908.048 1008.08 901.709 1012.24C895.465 1016.41 890.497 1021.94 886.808 1028.85C883.212 1035.76 881.415 1043.28 881.415 1051.41C881.415 1059.83 883.307 1067.45 887.091 1074.26C890.876 1081.08 895.891 1086.52 902.135 1090.58C908.474 1094.56 915.381 1096.54 922.856 1096.54Z" fill="white"/>
<path d="M4.83447 1233.89V1180.76H13.7597V1188.46C15.5306 1185.88 17.4431 1183.81 19.4973 1182.25C21.5515 1180.66 24.1193 1179.86 27.2006 1179.86C31.3799 1179.86 35.0102 1180.87 38.0915 1182.89C41.1729 1184.91 43.6698 1187.67 45.5823 1191.17C47.5303 1187.63 50.0627 1184.87 53.1794 1182.89C56.2961 1180.87 59.9087 1179.86 64.0172 1179.86C68.5152 1179.86 72.4288 1181.01 75.7581 1183.31C79.1227 1185.61 81.7259 1188.68 83.5676 1192.5C85.4448 1196.33 86.3833 1200.52 86.3833 1205.09V1233.89H77.4581V1205.09C77.4581 1202.08 76.9091 1199.36 75.8112 1196.91C74.7487 1194.43 73.208 1192.47 71.1892 1191.02C69.2058 1189.53 66.8151 1188.78 64.0172 1188.78C61.2192 1188.78 58.7754 1189.53 56.6857 1191.02C54.5961 1192.47 52.9669 1194.43 51.7981 1196.91C50.6293 1199.36 50.0449 1202.08 50.0449 1205.09V1233.89H41.1197V1205.09C41.1197 1202.08 40.5353 1199.36 39.3666 1196.91C38.1978 1194.43 36.5686 1192.47 34.4789 1191.02C32.3893 1189.53 29.9632 1188.78 27.2006 1188.78C24.5797 1188.78 22.2599 1189.56 20.2411 1191.12C18.2223 1192.68 16.6285 1194.75 15.4597 1197.34C14.3264 1199.89 13.7597 1202.67 13.7597 1205.68V1233.89H4.83447Z" fill="white"/>
<path d="M119.401 1235.27C114.514 1235.27 110.051 1234.01 106.013 1231.5C102.011 1228.98 98.806 1225.62 96.3976 1221.4C94.0247 1217.15 92.8382 1212.46 92.8382 1207.32C92.8382 1203.43 93.5288 1199.8 94.9101 1196.43C96.2914 1193.03 98.1862 1190.06 100.595 1187.51C103.038 1184.92 105.872 1182.9 109.095 1181.45C112.318 1180 115.753 1179.27 119.401 1179.27C124.289 1179.27 128.734 1180.53 132.736 1183.05C136.774 1185.56 139.979 1188.94 142.352 1193.19C144.76 1197.44 145.964 1202.15 145.964 1207.32C145.964 1211.19 145.274 1214.8 143.893 1218.16C142.511 1221.53 140.599 1224.5 138.155 1227.09C135.747 1229.64 132.931 1231.64 129.708 1233.09C126.52 1234.54 123.085 1235.27 119.401 1235.27ZM119.401 1226.34C122.731 1226.34 125.723 1225.48 128.38 1223.74C131.071 1221.97 133.179 1219.65 134.702 1216.78C136.26 1213.88 137.039 1210.72 137.039 1207.32C137.039 1203.85 136.242 1200.67 134.649 1197.76C133.09 1194.86 130.983 1192.54 128.327 1190.8C125.67 1189.07 122.695 1188.2 119.401 1188.2C116.072 1188.2 113.079 1189.08 110.423 1190.86C107.767 1192.59 105.659 1194.91 104.101 1197.82C102.543 1200.72 101.763 1203.89 101.763 1207.32C101.763 1210.87 102.56 1214.09 104.154 1216.99C105.748 1219.86 107.891 1222.15 110.582 1223.85C113.274 1225.51 116.214 1226.34 119.401 1226.34Z" fill="white"/>
<path d="M180.513 1233.89H169.091L149.7 1180.66H159.21L174.775 1223.53L190.342 1180.66H199.851L180.513 1233.89Z" fill="white"/>
<path d="M208.504 1180.76H217.429V1233.89H208.504V1180.76ZM213.02 1171.04C211.638 1171.04 210.47 1170.58 209.513 1169.66C208.557 1168.74 208.079 1167.59 208.079 1166.21C208.079 1164.82 208.557 1163.67 209.513 1162.75C210.47 1161.83 211.638 1161.37 213.02 1161.37C214.401 1161.37 215.57 1161.83 216.526 1162.75C217.482 1163.67 217.961 1164.82 217.961 1166.21C217.961 1167.59 217.482 1168.74 216.526 1169.66C215.57 1170.58 214.401 1171.04 213.02 1171.04Z" fill="white"/>
<path d="M256.471 1235.27C251.584 1235.27 247.121 1234.01 243.083 1231.5C239.081 1228.98 235.876 1225.62 233.468 1221.4C231.095 1217.15 229.908 1212.46 229.908 1207.32C229.908 1203.43 230.599 1199.8 231.98 1196.43C233.361 1193.03 235.256 1190.06 237.665 1187.51C240.108 1184.92 242.942 1182.9 246.165 1181.45C249.388 1180 252.823 1179.27 256.471 1179.27C260.473 1179.27 264.139 1180.09 267.468 1181.72C270.833 1183.31 273.702 1185.54 276.075 1188.41C278.483 1191.28 280.272 1194.61 281.441 1198.4C282.645 1202.19 283.088 1206.24 282.769 1210.57H239.418C239.843 1213.58 240.834 1216.27 242.393 1218.64C243.951 1220.98 245.935 1222.84 248.343 1224.22C250.787 1225.6 253.496 1226.31 256.471 1226.34C259.659 1226.34 262.545 1225.53 265.131 1223.9C267.716 1222.24 269.806 1219.97 271.4 1217.1L280.484 1219.23C278.359 1223.94 275.154 1227.8 270.868 1230.81C266.583 1233.78 261.784 1235.27 256.471 1235.27ZM239.152 1203.55H273.79C273.507 1200.58 272.551 1197.87 270.922 1195.42C269.292 1192.95 267.22 1190.96 264.706 1189.47C262.191 1187.99 259.446 1187.24 256.471 1187.24C253.496 1187.24 250.769 1187.97 248.29 1189.42C245.811 1190.87 243.756 1192.84 242.127 1195.32C240.533 1197.76 239.542 1200.51 239.152 1203.55Z" fill="white"/>
<path d="M365.784 1205.62V1233.89H356.859V1205.84C356.859 1202.54 356.169 1199.55 354.787 1196.86C353.406 1194.13 351.529 1191.97 349.156 1190.38C346.783 1188.75 344.109 1187.93 341.134 1187.93C338.194 1187.93 335.573 1188.75 333.271 1190.38C331.004 1191.97 329.216 1194.13 327.905 1196.86C326.595 1199.55 325.94 1202.54 325.94 1205.84V1233.89H317.014V1180.76H325.94V1188.94C327.852 1185.93 330.208 1183.58 333.005 1181.88C335.839 1180.14 338.991 1179.27 342.462 1179.27C347.066 1179.27 351.104 1180.48 354.575 1182.89C358.081 1185.3 360.808 1188.5 362.756 1192.5C364.74 1196.47 365.749 1200.84 365.784 1205.62Z" fill="white"/>
<path d="M377.429 1180.76H386.354V1233.89H377.429V1180.76ZM381.945 1171.04C380.563 1171.04 379.395 1170.58 378.438 1169.66C377.482 1168.74 377.004 1167.59 377.004 1166.21C377.004 1164.82 377.482 1163.67 378.438 1162.75C379.395 1161.83 380.563 1161.37 381.945 1161.37C383.326 1161.37 384.495 1161.83 385.451 1162.75C386.407 1163.67 386.885 1164.82 386.885 1166.21C386.885 1167.59 386.407 1168.74 385.451 1169.66C384.495 1170.58 383.326 1171.04 381.945 1171.04Z" fill="white"/>
<path d="M443.512 1180.76H452.438V1235.59C452.438 1239.09 451.676 1242.35 450.153 1245.36C448.666 1248.41 446.647 1251.05 444.097 1253.28C441.547 1255.55 438.642 1257.3 435.384 1258.54C432.126 1259.81 428.725 1260.45 425.184 1260.45C421.5 1260.45 417.941 1259.62 414.505 1257.95C411.07 1256.32 408.059 1254.13 405.474 1251.37C402.924 1248.64 401.082 1245.58 399.949 1242.18L408.13 1238.46C408.803 1240.9 410.007 1243.1 411.743 1245.04C413.514 1247.03 415.568 1248.59 417.905 1249.72C420.278 1250.89 422.705 1251.47 425.184 1251.47C427.521 1251.47 429.77 1251.07 431.931 1250.25C434.127 1249.44 436.092 1248.3 437.828 1246.85C439.599 1245.43 440.98 1243.75 441.972 1241.8C442.999 1239.89 443.512 1237.82 443.512 1235.59V1225.02C441.706 1228.06 439.315 1230.54 436.34 1232.45C433.401 1234.33 429.965 1235.27 426.034 1235.27C422.28 1235.27 418.755 1234.54 415.462 1233.09C412.168 1231.64 409.281 1229.64 406.802 1227.09C404.323 1224.5 402.375 1221.53 400.958 1218.16C399.541 1214.8 398.833 1211.19 398.833 1207.32C398.833 1203.46 399.541 1199.85 400.958 1196.49C402.375 1193.09 404.323 1190.11 406.802 1187.56C409.281 1184.98 412.168 1182.96 415.462 1181.51C418.755 1180.05 422.28 1179.33 426.034 1179.33C429.965 1179.33 433.401 1180.27 436.34 1182.14C439.315 1184.02 441.706 1186.5 443.512 1189.58V1180.76ZM426.087 1226.61C429.522 1226.61 432.497 1225.72 435.012 1223.95C437.562 1222.18 439.528 1219.83 440.909 1216.89C442.29 1213.95 442.981 1210.76 442.981 1207.32C442.981 1203.78 442.273 1200.56 440.856 1197.66C439.475 1194.72 437.509 1192.38 434.959 1190.64C432.444 1188.87 429.487 1187.99 426.087 1187.99C422.758 1187.99 419.712 1188.85 416.949 1190.59C414.187 1192.33 411.991 1194.66 410.362 1197.6C408.768 1200.51 407.971 1203.75 407.971 1207.32C407.971 1210.9 408.785 1214.16 410.415 1217.1C412.079 1220 414.275 1222.32 417.002 1224.06C419.765 1225.76 422.793 1226.61 426.087 1226.61Z" fill="white"/>
<path d="M512.352 1205.68V1233.89H503.427V1205.89C503.427 1202.6 502.737 1199.59 501.355 1196.86C500.009 1194.13 498.168 1191.97 495.83 1190.38C493.528 1188.78 490.978 1187.99 488.18 1187.99C485.24 1187.99 482.655 1188.78 480.423 1190.38C478.228 1191.97 476.51 1194.13 475.27 1196.86C474.066 1199.59 473.464 1202.6 473.464 1205.89V1233.89H464.486V1154.2H473.411V1188.2C475.075 1185.08 477.236 1182.83 479.892 1181.45C482.548 1180.04 485.559 1179.33 488.924 1179.33C493.563 1179.33 497.619 1180.53 501.09 1182.94C504.596 1185.35 507.323 1188.55 509.271 1192.56C511.254 1196.56 512.281 1200.93 512.352 1205.68Z" fill="white"/>
<path d="M550.527 1189.69H538.467L538.414 1233.89H529.489L529.542 1189.69H520.404V1180.76H529.542L529.489 1164.08H538.414L538.467 1180.76H550.527V1189.69Z" fill="white"/>
<path d="M613.096 1189.69H601.036L600.983 1233.89H592.058L592.111 1189.69H582.973V1180.76H592.111L592.058 1164.08H600.983L601.036 1180.76H613.096V1189.69Z" fill="white"/>
<path d="M644.438 1235.27C639.551 1235.27 635.088 1234.01 631.051 1231.5C627.048 1228.98 623.843 1225.62 621.435 1221.4C619.062 1217.15 617.875 1212.46 617.875 1207.32C617.875 1203.43 618.566 1199.8 619.947 1196.43C621.329 1193.03 623.223 1190.06 625.632 1187.51C628.076 1184.92 630.909 1182.9 634.132 1181.45C637.355 1180 640.79 1179.27 644.438 1179.27C649.326 1179.27 653.771 1180.53 657.773 1183.05C661.811 1185.56 665.016 1188.94 667.389 1193.19C669.797 1197.44 671.002 1202.15 671.002 1207.32C671.002 1211.19 670.311 1214.8 668.93 1218.16C667.548 1221.53 665.636 1224.5 663.192 1227.09C660.784 1229.64 657.968 1231.64 654.745 1233.09C651.557 1234.54 648.122 1235.27 644.438 1235.27ZM644.438 1226.34C647.768 1226.34 650.76 1225.48 653.417 1223.74C656.109 1221.97 658.216 1219.65 659.739 1216.78C661.297 1213.88 662.076 1210.72 662.076 1207.32C662.076 1203.85 661.28 1200.67 659.686 1197.76C658.127 1194.86 656.02 1192.54 653.364 1190.8C650.707 1189.07 647.732 1188.2 644.438 1188.2C641.109 1188.2 638.116 1189.08 635.46 1190.86C632.804 1192.59 630.696 1194.91 629.138 1197.82C627.58 1200.72 626.801 1203.89 626.801 1207.32C626.801 1210.87 627.597 1214.09 629.191 1216.99C630.785 1219.86 632.928 1222.15 635.62 1223.85C638.311 1225.51 641.251 1226.34 644.438 1226.34Z" fill="white"/>
<path d="M720.973 1180.76H729.898V1235.59C729.898 1239.09 729.136 1242.35 727.613 1245.36C726.126 1248.41 724.107 1251.05 721.557 1253.28C719.007 1255.55 716.103 1257.3 712.844 1258.54C709.586 1259.81 706.186 1260.45 702.644 1260.45C698.961 1260.45 695.401 1259.62 691.966 1257.95C688.53 1256.32 685.52 1254.13 682.934 1251.37C680.384 1248.64 678.542 1245.58 677.409 1242.18L685.591 1238.46C686.263 1240.9 687.468 1243.1 689.203 1245.04C690.974 1247.03 693.028 1248.59 695.366 1249.72C697.739 1250.89 700.165 1251.47 702.644 1251.47C704.982 1251.47 707.231 1251.07 709.391 1250.25C711.587 1249.44 713.553 1248.3 715.288 1246.85C717.059 1245.43 718.44 1243.75 719.432 1241.8C720.459 1239.89 720.973 1237.82 720.973 1235.59V1225.02C719.166 1228.06 716.776 1230.54 713.801 1232.45C710.861 1234.33 707.425 1235.27 703.494 1235.27C699.74 1235.27 696.216 1234.54 692.922 1233.09C689.628 1231.64 686.742 1229.64 684.262 1227.09C681.783 1224.5 679.835 1221.53 678.419 1218.16C677.002 1214.8 676.293 1211.19 676.293 1207.32C676.293 1203.46 677.002 1199.85 678.419 1196.49C679.835 1193.09 681.783 1190.11 684.262 1187.56C686.742 1184.98 689.628 1182.96 692.922 1181.51C696.216 1180.05 699.74 1179.33 703.494 1179.33C707.425 1179.33 710.861 1180.27 713.801 1182.14C716.776 1184.02 719.166 1186.5 720.973 1189.58V1180.76ZM703.547 1226.61C706.983 1226.61 709.958 1225.72 712.472 1223.95C715.023 1222.18 716.988 1219.83 718.37 1216.89C719.751 1213.95 720.441 1210.76 720.441 1207.32C720.441 1203.78 719.733 1200.56 718.316 1197.66C716.935 1194.72 714.969 1192.38 712.419 1190.64C709.905 1188.87 706.947 1187.99 703.547 1187.99C700.218 1187.99 697.172 1188.85 694.41 1190.59C691.647 1192.33 689.451 1194.66 687.822 1197.6C686.228 1200.51 685.431 1203.75 685.431 1207.32C685.431 1210.9 686.246 1214.16 687.875 1217.1C689.54 1220 691.735 1222.32 694.463 1224.06C697.225 1225.76 700.253 1226.61 703.547 1226.61Z" fill="white"/>
<path d="M764.803 1235.27C759.915 1235.27 755.452 1234.01 751.415 1231.5C747.413 1228.98 744.207 1225.62 741.799 1221.4C739.426 1217.15 738.24 1212.46 738.24 1207.32C738.24 1203.43 738.93 1199.8 740.311 1196.43C741.693 1193.03 743.588 1190.06 745.996 1187.51C748.44 1184.92 751.273 1182.9 754.496 1181.45C757.719 1180 761.155 1179.27 764.803 1179.27C768.805 1179.27 772.471 1180.09 775.8 1181.72C779.164 1183.31 782.033 1185.54 784.406 1188.41C786.815 1191.28 788.603 1194.61 789.772 1198.4C790.976 1202.19 791.419 1206.24 791.1 1210.57H747.749C748.174 1213.58 749.166 1216.27 750.724 1218.64C752.283 1220.98 754.266 1222.84 756.674 1224.22C759.118 1225.6 761.828 1226.31 764.803 1226.34C767.99 1226.34 770.877 1225.53 773.462 1223.9C776.048 1222.24 778.137 1219.97 779.731 1217.1L788.816 1219.23C786.691 1223.94 783.485 1227.8 779.2 1230.81C774.914 1233.78 770.115 1235.27 764.803 1235.27ZM747.484 1203.55H782.122C781.839 1200.58 780.882 1197.87 779.253 1195.42C777.624 1192.95 775.552 1190.96 773.037 1189.47C770.523 1187.99 767.778 1187.24 764.803 1187.24C761.828 1187.24 759.1 1187.97 756.621 1189.42C754.142 1190.87 752.088 1192.84 750.459 1195.32C748.865 1197.76 747.873 1200.51 747.484 1203.55Z" fill="white"/>
<path d="M826.95 1189.69H814.89L814.837 1233.89H805.912L805.965 1189.69H796.827V1180.76H805.965L805.912 1164.08H814.837L814.89 1180.76H826.95V1189.69Z" fill="white"/>
<path d="M883.303 1205.68V1233.89H874.377V1205.89C874.377 1202.6 873.687 1199.59 872.305 1196.86C870.96 1194.13 869.118 1191.97 866.78 1190.38C864.478 1188.78 861.928 1187.99 859.13 1187.99C856.19 1187.99 853.605 1188.78 851.374 1190.38C849.178 1191.97 847.46 1194.13 846.22 1196.86C845.016 1199.59 844.414 1202.6 844.414 1205.89V1233.89H835.436V1154.2H844.361V1188.2C846.026 1185.08 848.186 1182.83 850.842 1181.45C853.499 1180.04 856.509 1179.33 859.874 1179.33C864.514 1179.33 868.569 1180.53 872.04 1182.94C875.546 1185.35 878.273 1188.55 880.221 1192.56C882.205 1196.56 883.232 1200.93 883.303 1205.68Z" fill="white"/>
<path d="M915.777 1235.27C910.889 1235.27 906.427 1234.01 902.389 1231.5C898.387 1228.98 895.181 1225.62 892.773 1221.4C890.4 1217.15 889.214 1212.46 889.214 1207.32C889.214 1203.43 889.904 1199.8 891.286 1196.43C892.667 1193.03 894.562 1190.06 896.97 1187.51C899.414 1184.92 902.247 1182.9 905.47 1181.45C908.693 1180 912.129 1179.27 915.777 1179.27C919.779 1179.27 923.445 1180.09 926.774 1181.72C930.139 1183.31 933.007 1185.54 935.38 1188.41C937.789 1191.28 939.577 1194.61 940.746 1198.4C941.95 1202.19 942.393 1206.24 942.074 1210.57H898.723C899.148 1213.58 900.14 1216.27 901.698 1218.64C903.257 1220.98 905.24 1222.84 907.648 1224.22C910.092 1225.6 912.802 1226.31 915.777 1226.34C918.964 1226.34 921.851 1225.53 924.436 1223.9C927.022 1222.24 929.111 1219.97 930.705 1217.1L939.79 1219.23C937.665 1223.94 934.46 1227.8 930.174 1230.81C925.888 1233.78 921.089 1235.27 915.777 1235.27ZM898.458 1203.55H933.096C932.813 1200.58 931.856 1197.87 930.227 1195.42C928.598 1192.95 926.526 1190.96 924.011 1189.47C921.497 1187.99 918.752 1187.24 915.777 1187.24C912.802 1187.24 910.075 1187.97 907.595 1189.42C905.116 1190.87 903.062 1192.84 901.433 1195.32C899.839 1197.76 898.847 1200.51 898.458 1203.55Z" fill="white"/>
<path d="M981.519 1189.58C980.633 1189.08 979.677 1188.7 978.65 1188.41C977.623 1188.13 976.507 1187.99 975.303 1187.99C972.363 1187.99 969.743 1188.78 967.44 1190.38C965.174 1191.97 963.385 1194.13 962.075 1196.86C960.764 1199.59 960.109 1202.6 960.109 1205.89V1233.89H951.131V1180.76H960.056V1188.94C961.968 1185.97 964.341 1183.63 967.175 1181.93C970.008 1180.19 973.143 1179.33 976.578 1179.33C977.747 1179.33 978.863 1179.38 979.925 1179.49C980.988 1179.59 981.997 1179.81 982.953 1180.12L981.519 1189.58Z" fill="white"/>
<path d="M990.883 1235.27C989.537 1235.27 988.386 1234.79 987.43 1233.83C986.509 1232.88 986.049 1231.71 986.049 1230.33C986.049 1229.02 986.509 1227.88 987.43 1226.93C988.386 1225.97 989.537 1225.49 990.883 1225.49C992.265 1225.49 993.433 1225.97 994.39 1226.93C995.346 1227.88 995.824 1229.02 995.824 1230.33C995.824 1231.71 995.346 1232.88 994.39 1233.83C993.433 1234.79 992.265 1235.27 990.883 1235.27Z" fill="white"/>
</svg>
